# xmcd CD database file
# Copyright (C) 1993-1998 Ti Kan
#
# Track frame offsets:
#  150
#  16343
#  32498
#  49393
#  67243
#  87298
#  106660
#  126093
#  144023
#  168375
#  187988
#  206793
#  225068
#  243293
#  260993
#  278943
#  295193
#  314138
#
# Disc length: 4397 seconds
#
# Revision: 1
# Processed by: cddbd v1.4b41PL1 Copyright (c) Steve Scherf et al.
# Submitted via: CDWizzard Release:4.32
#
DISCID=03112b12
DTITLE=Mr. Big - Mr. Biggest Hits
DYEAR=1900
DGENRE=
TTITLE0=Wild World
TTITLE1=Green-Tinted Sixties Mind
TTITLE2=Nothing But Love
TTITLE3=Daddy, Brother, Lover, Little Boy
TTITLE4=Just Take My Hearth
TTITLE5=Colorado Buldog
TTITLE6=CDFF-Lucky This Time
TTITLE7=The Whole World's Gonna Know
TTITLE8=A Little To Lose
TTITLE9=Mr. Big
TTITLE10=Promise Her The Moon
TTITLE11=Road To Ruin
TTITLE12=What's It Gonna Be
TTITLE13=Never Say Never
TTITLE14=Price You Gotta Pay
TTITLE15=Ain't Seen Love Like That
TTITLE16=Voodoo Kiss
TTITLE17=To Be With You
EXTD=
EXTT0=
EXTT1=
EXTT2=
EXTT3=
EXTT4=
EXTT5=
EXTT6=
EXTT7=
EXTT8=
EXTT9=
EXTT10=
EXTT11=
EXTT12=
EXTT13=
EXTT14=
EXTT15=
EXTT16=
EXTT17=
PLAYORDER=
